#!OML:ASF X:\für Bonn\!DataBase\2005_08_11_Bastian_Final\c3d\Bastian.ASF
:FULLY-SPECIFIED
:DEGREES
141
root -0.996663 18.4437 -9.17138 180.224 -57.2164 -193.109
lowerback 11.079 -5.64562 -4.45738
upperback 1.88268 -8.11651 0.644663
thorax -3.48433 -4.03236 4.23337
lowerneck 5.82543 -14.2615 -10.2706
upperneck -7.9759 -19.249 13.9377
head -0.9182 -9.91123 5.85709
rclavicle 6.85683e-014 -2.70347e-014
rhumerus -137.913 -160.516 162.832
rradius 77.2523
rwrist -144.334
rhand -12.6841 13.9395
rfingers 7.12502
rthumb 13.3977 -15.6097
lclavicle 6.85683e-014 -2.70347e-014
lhumerus 95.4932 -4.73174 55.664
lradius 41.9451
lwrist 214.873
lhand -9.59616 26.041
lfingers 7.12502
lthumb 16.3725 55.37
rfemur 1.05239 1.27534 11.8617
rtibia 32.4739
rfoot -8.61578 -16.178
rtoes 0.578509
lfemur 7.0781 4.88554 -10.5781
ltibia 29.5212
lfoot 17.5307 -7.25099
ltoes -44.6768
142
root -0.969181 18.4154 -9.18946 180.021 -57.371 -192.944
lowerback 11.0428 -5.62891 -4.40004
upperback 2.00723 -8.08761 0.682827
thorax -3.33921 -4.02885 4.22448
lowerneck 6.01683 -14.2484 -10.1517
upperneck -8.16645 -19.2229 14.0179
head -1.01048 -9.91235 5.89309
rclavicle 4.7963e-014 -1.59028e-014
rhumerus -139.612 -161.043 163.282
rradius 79.4528
rwrist -144.729
rhand -12.3408 13.9664
rfingers 7.12502
rthumb 13.7286 -15.5607
lclavicle 4.7963e-014 -1.59028e-014
lhumerus 94.9914 -4.88007 55.0666
lradius 42.7139
lwrist 215.836
lhand -9.44728 25.5522
lfingers 7.12502
lthumb 16.5158 54.8692
rfemur 1.17802 1.57881 12.2697
rtibia 32.5036
rfoot -9.38852 -16.7892
rtoes 1.14002
lfemur 6.95143 4.96765 -10.3787
ltibia 29.8563
lfoot 17.1441 -7.14222
ltoes -44.688
143
root -0.94074 18.3883 -9.20747 179.763 -57.5467 -192.725
lowerback 11.0272 -5.61411 -4.30369
upperback 2.12257 -8.05807 0.716194
thorax -3.22123 -4.02391 4.19281
lowerneck 6.22437 -14.2482 -10.041
upperneck -8.34458 -19.216 14.1051
head -1.09793 -9.92358 5.93191
rclavicle -4.008e-014 -5.725e-014
rhumerus -141.329 -161.59 163.496
rradius 81.6866
rwrist -145
rhand -11.9748 13.9413
rfingers 7.12502
rthumb 14.0813 -15.5616
lclavicle -4.008e-014 -5.725e-014
lhumerus 94.4516 -5.12742 54.5299
lradius 43.499
lwrist 216.735
lhand -9.44327 25.1178
lfingers 7.12502
lthumb 16.5197 54.4346
rfemur 1.32989 1.90869 12.7263
rtibia 32.5138
rfoot -10.1799 -17.4336
rtoes 1.96343
lfemur 6.81252 5.04015 -10.1349
ltibia 30.1948
lfoot 16.7525 -7.07889
ltoes -44.7541
144
root -0.913782 18.3622 -9.22344 179.518 -57.7309 -192.509
lowerback 10.9861 -5.60652 -4.20622
upperback 2.25523 -8.03773 0.747964
thorax -3.07067 -4.02519 4.15546
lowerneck 6.40449 -14.2353 -9.88645
upperneck -8.56697 -19.1831 14.1917
head -1.20143 -9.92337 5.96659
rclavicle -1.48144e-013 3.18055e-015
rhumerus -143.059 -162.157 163.59
rradius 83.95
rwrist -145.202
rhand -11.7702 13.7871
rfingers 7.12502
rthumb 14.2784 -15.702
lclavicle -1.48144e-013 3.18055e-015
lhumerus 93.9075 -5.34614 53.9235
lradius 44.3198
lwrist 217.722
lhand -9.59218 24.7939
lfingers 7.12502
lthumb 16.3763 54.1226
rfemur 1.46854 2.21185 13.1627
rtibia 32.5137
rfoot -10.9815 -18.0767
rtoes 2.66792
lfemur 6.65929 5.10689 -9.89908
ltibia 30.53
lfoot 16.3805 -7.00626
ltoes -44.7574
145
root -0.886349 18.3358 -9.23847 179.226 -57.9259 -192.241
lowerback 10.9662 -5.598 -4.07961
upperback 2.37135 -8.01335 0.79853
thorax -2.95072 -4.0229 4.12512
lowerneck 6.57288 -14.2277 -9.76659
upperneck -8.78971 -19.1584 14.2614
head -1.30074 -9.92518 5.99965
rclavicle 2.99668e-014 4.92986e-014
rhumerus -144.804 -162.778 163.641
rradius 86.2309
rwrist -145.35
rhand -11.7165 13.4275
rfingers 7.12502
rthumb 14.3302 -16.0579
lclavicle 2.99668e-014 4.92986e-014
lhumerus 93.324 -5.66402 53.4325
lradius 45.1443
lwrist 218.535
lhand -9.91534 24.5252
lfingers 7.12502
lthumb 16.0652 53.8792
rfemur 1.61349 2.52994 13.6356
rtibia 32.5121
rfoot -11.7769 -18.7077
rtoes 3.41251
lfemur 6.50534 5.12676 -9.62323
ltibia 30.8618
lfoot 16.0296 -6.83828
ltoes -44.3225
146
root -0.859427 18.31 -9.25256 178.974 -58.1166 -192.019
lowerback 10.9385 -5.58838 -3.98417
upperback 2.49696 -7.99177 0.842174
thorax -2.8131 -4.02262 4.10317
lowerneck 6.70417 -14.2165 -9.64706
upperneck -9.03468 -19.1239 14.3612
head -1.3986 -9.92345 6.03964
rclavicle 3.42407e-014 -2.06736e-014
rhumerus -146.543 -163.419 163.632
rradius 88.4986
rwrist -145.496
rhand -11.6457 13.0526
rfingers 7.12502
rthumb 14.3984 -16.428
lclavicle 3.42407e-014 -2.06736e-014
lhumerus 92.7027 -6.01147 52.9764
lradius 46.0335
lwrist 219.226
lhand -10.3304 24.3932
lfingers 7.12502
lthumb 15.6655 53.779
rfemur 1.7423 2.6795 14.0198
rtibia 32.51
rfoot -12.5169 -19.1645
rtoes 3.89364
lfemur 6.35535 5.11047 -9.38819
ltibia 31.1926
lfoot 15.703 -6.62253
ltoes -43.759
147
root -0.832334 18.2832 -9.26445 178.729 -58.3553 -191.817
lowerback 10.9403 -5.59713 -3.87009
upperback 2.61612 -7.99453 0.869317
thorax -2.70109 -4.03327 4.06085
lowerneck 6.8335 -14.2016 -9.4759
upperneck -9.30903 -19.0784 14.4158
head -1.51598 -9.91625 6.06282
rclavicle -6.64438e-014 -7.95139e-015
rhumerus -148.273 -164.107 163.509
rradius 90.7463
rwrist -145.569
rhand -11.603 12.6188
rfingers 7.12502
rthumb 14.4395 -16.8588
lclavicle -6.64438e-014 -7.95139e-015
lhumerus 92.0406 -6.39921 52.504
lradius 46.9507
lwrist 219.848
lhand -10.6978 24.2981
lfingers 7.12502
lthumb 15.3116 53.7113
rfemur 1.88413 2.77505 14.3752
rtibia 32.5157
rfoot -13.2717 -19.5751
rtoes 4.67097
lfemur 6.1934 5.08441 -9.1578
ltibia 31.5204
lfoot 15.3553 -6.49853
ltoes -43.2611
148
root -0.806371 18.2578 -9.27468 178.517 -58.6304 -191.616
lowerback 10.8879 -5.60878 -3.74674
upperback 2.75325 -7.9985 0.911753
thorax -2.53966 -4.04663 4.02135
lowerneck 6.86317 -14.2036 -9.31246
upperneck -9.56187 -19.0511 14.4607
head -1.60927 -9.91489 6.07347
rclavicle -7.92902e-014 -1.11319e-014
rhumerus -150.022 -164.812 163.387
rradius 92.9909
rwrist -145.558
rhand -11.5689 12.2298
rfingers 7.12502
rthumb 14.4724 -17.2455
lclavicle -7.92902e-014 -1.11319e-014
lhumerus 91.3913 -6.85626 52.1551
lradius 47.9309
lwrist 220.239
lhand -11.0602 24.2512
lfingers 7.12502
lthumb 14.9625 53.6907
rfemur 1.97594 2.68063 14.6706
rtibia 32.5342
rfoot -13.9054 -19.8302
rtoes 5.22547
lfemur 5.98983 5.01619 -8.94469
ltibia 31.8431
lfoot 15.0274 -6.37745
ltoes -42.726
149
root -0.780067 18.2315 -9.28245 178.279 -58.9211 -191.388
lowerback 10.8762 -5.6255 -3.57522
upperback 2.85658 -8.00499 0.941246
thorax -2.44414 -4.05761 3.95032
lowerneck 6.97077 -14.2113 -9.1929
upperneck -9.83621 -19.0375 14.5568
head -1.71013 -9.92424 6.11152
rclavicle 2.19906e-014 -2.22639e-014
rhumerus -151.8 -165.599 163.179
rradius 95.2302
rwrist -145.556
rhand -11.6061 11.8697
rfingers 7.12502
rthumb 14.4366 -17.6082
lclavicle 2.19906e-014 -2.22639e-014
lhumerus 90.6517 -7.39439 51.7765
lradius 49.0016
lwrist 220.62
lhand -11.3294 24.3012
lfingers 7.12502
lthumb 14.7032 53.7598
rfemur 2.06361 2.55077 14.9607
rtibia 32.5581
rfoot -14.5364 -20.0435
rtoes 5.84335
lfemur 5.77374 4.94373 -8.71247
ltibia 32.1699
lfoot 14.7235 -6.29184
ltoes -42.0757
150
root -0.754212 18.2057 -9.28865 178.121 -59.2094 -191.253
lowerback 10.8889 -5.64818 -3.46966
upperback 2.94836 -8.02745 0.983543
thorax -2.36162 -4.07571 3.93354
lowerneck 7.03077 -14.216 -9.09579
upperneck -10.0819 -19.0211 14.6097
head -1.79777 -9.92752 6.13472
rclavicle -1.35546e-013 9.54166e-015
rhumerus -153.532 -166.455 162.897
rradius 97.4699
rwrist -145.598
rhand -11.5632 11.5202
rfingers 7.12502
rthumb 14.4779 -17.9548
lclavicle -1.35546e-013 9.54166e-015
lhumerus 89.8265 -7.97223 51.5043
lradius 50.1213
lwrist 220.781
lhand -11.5789 24.43
lfingers 7.12502
lthumb 14.4628 53.906
rfemur 2.12576 2.2958 15.1463
rtibia 32.5928
rfoot -15.0392 -20.1262
rtoes 6.22207
lfemur 5.54855 4.86522 -8.55569
ltibia 32.4923
lfoot 14.3929 -6.23018
ltoes -41.6023
151
root -0.727096 18.1804 -9.29238 177.908 -59.4678 -191.047
lowerback 10.928 -5.65827 -3.33681
upperback 3.02646 -8.03056 1.04095
thorax -2.31108 -4.08283 3.91977
lowerneck 7.12163 -14.2139 -9.01729
upperneck -10.3683 -18.9955 14.7007
head -1.89763 -9.92936 6.1765
rclavicle 3.15322e-014 -9.54166e-015
rhumerus -155.306 -167.389 162.56
rradius 99.7278
rwrist -145.742
rhand -11.6247 11.3515
rfingers 7.12502
rthumb 14.4186 -18.1276
lclavicle 3.15322e-014 -9.54166e-015
lhumerus 88.9755 -8.57738 51.207
lradius 51.3372
lwrist 220.896
lhand -11.8128 24.4496
lfingers 7.12502
lthumb 14.2374 53.9416
rfemur 2.15424 2.0086 15.3491
rtibia 32.635
rfoot -15.4312 -20.1773
rtoes 6.32578
lfemur 5.31816 4.78564 -8.36991
ltibia 32.8158
lfoot 14.0618 -6.16753
ltoes -41.0074
